<svg width="58" height="58" viewBox="0 0 58 58" fill="none" xmlns="http://www.w3.org/2000/svg">
<path d="M0 4.8125C0 2.15462 2.15462 0 4.8125 0H52.9375C55.5953 0 57.75 2.15462 57.75 4.8125V9.625C57.75 12.2829 55.5953 14.4375 52.9375 14.4375H4.8125C2.15462 14.4375 0 12.2829 0 9.625V4.8125ZM3.20833 19.25H54.5417V45.7188C54.5417 52.3635 49.1552 57.75 42.5104 57.75H15.2396C8.5949 57.75 3.20833 52.3635 3.20833 45.7188V19.25ZM23.2604 25.6667C21.9315 25.6667 20.8542 26.744 20.8542 28.0729C20.8542 29.4018 21.9315 30.4792 23.2604 30.4792H34.4896C35.8185 30.4792 36.8958 29.4018 36.8958 28.0729C36.8958 26.744 35.8185 25.6667 34.4896 25.6667H23.2604Z" fill="#172852"/>
</svg>
