<svg width="63" height="72" viewBox="0 0 63 72" fill="none" xmlns="http://www.w3.org/2000/svg">
<path d="M45.6832 0C50.1362 0 53.7457 3.60971 53.7457 8.0625V63.6042C53.7457 68.0568 50.1362 71.6667 45.6832 71.6667H8.0625C3.60971 71.6667 0 68.0568 0 63.6042V8.0625C0 3.60971 3.60971 0 8.0625 0H45.6832ZM45.6832 5.375H8.0625C6.57825 5.375 5.375 6.57825 5.375 8.0625V63.6042C5.375 65.0884 6.57825 66.2917 8.0625 66.2917H45.6832C47.1674 66.2917 48.3707 65.0884 48.3707 63.6042V8.0625C48.3707 6.57825 47.1674 5.375 45.6832 5.375ZM57.3333 46.5901H60.0208C61.3814 46.5901 62.5059 47.6014 62.684 48.9132L62.7083 49.2776V54.6458C62.7083 56.0064 61.6971 57.1309 60.3856 57.309L60.0208 57.3333H57.3333V46.5901ZM57.3333 32.2568H60.0208C61.3814 32.2568 62.5059 33.268 62.684 34.5799L62.7083 34.9443V40.3125C62.7083 41.6731 61.6971 42.7975 60.3856 42.9756L60.0208 43H57.3333V32.2568ZM57.3333 17.9236H60.0208C61.3814 17.9236 62.5059 18.9347 62.684 20.2464L62.7083 20.6111V25.9792C62.7083 27.3398 61.6971 28.4642 60.3856 28.6421L60.0208 28.6667H57.3333V17.9236ZM40.3082 10.75C41.7924 10.75 42.9957 11.9532 42.9957 13.4375V22.3905C42.9957 23.8747 41.7924 25.078 40.3082 25.078H13.4375C11.9532 25.078 10.75 23.8747 10.75 22.3905V13.4375C10.75 11.9532 11.9532 10.75 13.4375 10.75H40.3082ZM37.6207 16.125H16.125V19.703H37.6207V16.125Z" fill="#172852"/>
</svg>
