<svg width="64" height="54" viewBox="0 0 64 54" fill="none" xmlns="http://www.w3.org/2000/svg">
<path d="M19 25.3333C25.9955 25.3333 31.6667 19.6621 31.6667 12.6667C31.6667 5.67106 25.9955 0 19 0C12.0044 0 6.33333 5.67106 6.33333 12.6667C6.33333 19.6621 12.0044 25.3333 19 25.3333ZM47.5 25.3333C52.7469 25.3333 57 21.0802 57 15.8333C57 10.5866 52.7469 6.33333 47.5 6.33333C42.2531 6.33333 38 10.5866 38 15.8333C38 21.0802 42.2531 25.3333 47.5 25.3333ZM7.125 31.6667C3.18997 31.6667 0 34.8568 0 38.7917V39.5833C0 39.5833 0 53.8333 19 53.8333C38 53.8333 38 39.5833 38 39.5833V38.7917C38 34.8568 34.8099 31.6667 30.875 31.6667H7.125ZM47.5006 49.0833C43.7918 49.0833 40.9517 48.5098 38.7768 47.6317C39.8598 45.8112 40.4444 44.0616 40.7626 42.6981C40.9539 41.8782 41.0543 41.1752 41.1075 40.6451C41.1341 40.3788 41.1489 40.1533 41.1572 39.975C41.1613 39.8857 41.1638 39.8078 41.1654 39.7426L41.167 39.6536L41.1673 39.6159V39.5992V39.5909C41.1673 39.5808 41.1673 39.5833 41.1673 39.5833V38.7917C41.1673 36.03 40.0796 33.5226 38.3094 31.6739C38.4167 31.6692 38.525 31.6667 38.634 31.6667H56.3673C60.2148 31.6667 63.334 34.7858 63.334 38.6333C63.334 38.6333 63.334 49.0833 47.5006 49.0833Z" fill="#172852"/>
</svg>
