<svg width="36" height="36" viewBox="0 0 36 36" fill="none" xmlns="http://www.w3.org/2000/svg">
<path d="M0 6.5C0 2.91014 2.91014 0 6.5 0H29.5C33.0898 0 36 2.91014 36 6.5V29.5C36 33.0898 33.0898 36 29.5 36H6.5C2.91014 36 0 33.0898 0 29.5V6.5ZM6.5 3C4.567 3 3 4.567 3 6.5V29.5C3 31.433 4.567 33 6.5 33H29.5C31.433 33 33 31.433 33 29.5V6.5C33 4.567 31.433 3 29.5 3H6.5ZM6 10.5C6 8.567 7.567 7 9.5 7H26.5C28.433 7 30 8.567 30 10.5V13.5C30 15.433 28.433 17 26.5 17H9.5C7.567 17 6 15.433 6 13.5V10.5ZM9.5 10C9.22386 10 9 10.2239 9 10.5V13.5C9 13.7761 9.22386 14 9.5 14H26.5C26.7762 14 27 13.7761 27 13.5V10.5C27 10.2239 26.7762 10 26.5 10H9.5ZM7.5 20C6.67158 20 6 20.6716 6 21.5C6 22.3284 6.67158 23 7.5 23H16.5C17.3284 23 18 22.3284 18 21.5C18 20.6716 17.3284 20 16.5 20H7.5ZM6 27.5C6 26.6716 6.67158 26 7.5 26H16.5C17.3284 26 18 26.6716 18 27.5C18 28.3284 17.3284 29 16.5 29H7.5C6.67158 29 6 28.3284 6 27.5ZM24.5 20C22.567 20 21 21.567 21 23.5V25.5C21 27.433 22.567 29 24.5 29H26.5C28.433 29 30 27.433 30 25.5V23.5C30 21.567 28.433 20 26.5 20H24.5ZM24 23.5C24 23.2238 24.2238 23 24.5 23H26.5C26.7762 23 27 23.2238 27 23.5V25.5C27 25.7762 26.7762 26 26.5 26H24.5C24.2238 26 24 25.7762 24 25.5V23.5Z" fill="white"/>
</svg>
